<?xml version="1.0" encoding="UTF-8" standalone="no"?>
<!-- Created with Inkscape (http://www.inkscape.org/) -->
<svg xmlns:dc="http://purl.org/dc/elements/1.1/" xmlns:cc="http://web.resource.org/cc/" xmlns:rdf="http://www.w3.org/1999/02/22-rdf-syntax-ns#" xmlns:svg="http://www.w3.org/2000/svg" xmlns="http://www.w3.org/2000/svg" xmlns:sodipodi="http://inkscape.sourceforge.net/DTD/sodipodi-0.dtd" xmlns:inkscape="http://www.inkscape.org/namespaces/inkscape" id="svg1423" sodipodi:version="0.32" inkscape:version="0.43" width="200pt" height="240pt" sodipodi:docbase="C:\foo\wikipedia\transfer" sodipodi:docname="hand_grenade.svg" version="1.0">
  <metadata id="metadata1428">
    <rdf:RDF>
      <cc:Work rdf:about="">
        <dc:format>image/svg+xml</dc:format>
        <dc:type rdf:resource="http://purl.org/dc/dcmitype/StillImage"/>
        <cc:license rdf:resource="http://web.resource.org/cc/PublicDomain"/>
      </cc:Work>
      <cc:License rdf:about="http://web.resource.org/cc/PublicDomain">
        <cc:permits rdf:resource="http://web.resource.org/cc/Reproduction"/>
        <cc:permits rdf:resource="http://web.resource.org/cc/Distribution"/>
        <cc:permits rdf:resource="http://web.resource.org/cc/DerivativeWorks"/>
      </cc:License>
    </rdf:RDF>
  </metadata>
  <defs id="defs1426"/>
  <sodipodi:namedview inkscape:window-height="540" inkscape:window-width="812" inkscape:pageshadow="2" inkscape:pageopacity="0.0" borderopacity="1.0" bordercolor="#666666" pagecolor="#ffffff" id="base" inkscape:zoom="0.82857126" inkscape:cx="131.19635" inkscape:cy="163.29758" inkscape:window-x="110" inkscape:window-y="110" inkscape:current-layer="svg1423"/>
  <path style="fill: rgb(0, 0, 0);" d="M 110.53926,298.84688 C 94.608088,297.1959 73.519554,290.32757 62.566767,283.22271 C 55.247049,278.47455 41.074805,263.69043 35.91797,255.42337 C 33.894787,252.17994 30.225784,246.78869 27.764638,243.4428 C 22.490741,236.27303 14.014298,220.09517 10.681554,210.8386 C 8.628754,205.13702 8.4957707,203.86906 9.6566565,201.06644 C 10.875107,198.12484 10.761966,197.60003 8.3501226,195.00607 C 4.7588307,191.1436 4.2153985,188.10689 4.2480848,172.08407 C 4.2768823,157.96922 5.5198525,150.10452 9.7534545,137.24959 C 11.459381,132.06974 12.455155,130.54423 14.458611,130.04138 C 17.393455,129.30479 17.309963,129.53279 15.952445,125.96227 C 15.182867,123.93813 15.298741,122.44587 16.389221,120.33712 C 19.520194,114.28248 32.150593,102.12845 42.407479,95.300169 C 52.615524,88.504398 52.9637,88.138564 57.139949,79.820308 C 62.855205,68.436693 66.488242,63.249694 74.885397,54.484646 L 81.93363,47.127618 L 82.34143,39.571004 L 82.74923,32.01439 L 78.514419,29.696536 C 70.54805,25.336267 69.5501,23.865545 69.5501,16.48532 C 69.5501,8.7092042 66.914476,9.910522 92.093476,6.2100531 L 109.90734,3.5920121 L 137.19244,6.2347092 C 161.50675,8.5896734 164.78467,9.1288175 167.2984,11.186452 C 168.8499,12.456422 173.22918,16.032968 177.03015,19.134334 L 183.94102,24.773181 L 184.69179,33.848391 L 185.44254,42.923601 L 200.49554,58.428802 C 235.0028,93.972635 246.1258,117.70954 246.11457,155.78146 C 246.10629,183.80388 240.01951,208.14403 226.06762,235.94642 C 217.6401,252.74023 216.54211,254.1653 210.30121,256.4095 C 205.61492,258.09466 203.9556,259.51663 198.80447,266.2617 C 190.25009,277.46311 181.10899,285.77882 173.37627,289.39391 C 158.4309,296.38097 129.19066,300.77976 110.53926,298.84688 z M 107.1579,284.58032 C 106.59439,281.93826 106.45345,279.45526 106.84468,279.06254 C 107.23591,278.66983 112.83851,278.21758 119.29492,278.05754 C 132.28217,277.73563 135.76336,277.23749 135.76336,275.70098 C 135.76336,275.07136 129.42157,274.67 119.4728,274.67 C 101.23715,274.67 102.06532,274.23838 104.34836,282.55253 C 105.34346,286.17635 107.01723,289.38406 107.91303,289.38406 C 108.06121,289.38406 107.7214,287.22237 107.1579,284.58032 z M 77.882104,279.77441 L 74.622803,273.31777 L 78.655233,273.93766 C 80.873061,274.2786 84.579459,274.88092 86.891668,275.27616 C 89.89671,275.78981 90.793804,275.66884 90.037197,274.85195 C 88.817854,273.53546 71.514322,269.20242 70.705669,270.01109 C 69.722602,270.99415 79.024167,286.23104 80.607368,286.23104 C 80.901092,286.23104 79.674718,283.32555 77.882104,279.77441 z M 63.578968,272.39604 C 57.840107,263.44631 56.770669,262.36466 50.080481,258.74358 C 46.08428,256.58062 42.615473,255.01012 42.372017,255.25358 C 41.68361,255.94198 49.835744,266.3505 55.507562,272.02481 C 61.180408,277.70015 68.56923,283.35823 69.323178,282.60429 C 69.591815,282.33564 67.006923,277.74194 63.578968,272.39604 z M 147.87656,278.02476 C 148.90182,274.38077 149.36173,274.06556 157.3356,271.542 C 164.82649,269.1713 165.33512,268.85307 162.12296,268.54683 C 157.55877,268.11171 149.45645,270.1223 147.06165,272.28431 C 145.82711,273.39884 145.2224,275.5038 145.2224,278.68657 C 145.2224,284.01015 146.26573,283.74999 147.87656,278.02476 z M 102.37903,262.21885 C 101.96973,259.43006 102.35704,259.06077 108.07883,256.78446 C 115.70249,253.75152 118.88478,251.6034 126.67331,244.23278 C 130.83148,240.29771 134.20956,238.07243 137.10524,237.36078 C 139.46056,236.78194 141.54133,235.83454 141.72917,235.25542 C 142.05326,234.25618 94.861989,234.36329 93.811952,235.36419 C 93.408881,235.74841 96.743885,252.08883 99.099139,261.2697 C 100.30254,265.96052 103.04466,266.75405 102.37903,262.21885 z M 84.114432,249.29203 C 81.907986,241.11466 79.891456,234.21282 79.633234,233.9546 C 78.871624,233.19299 50.46373,226.20332 49.501346,226.54075 C 48.269874,226.97253 59.724947,253.72177 62.214156,256.22701 C 64.136704,258.16193 81.177684,263.77401 85.932395,264.0381 C 88.064903,264.15656 88.014162,263.74497 84.114432,249.29203 z M 154.68143,248.16735 C 157.96802,235.83498 158.63989,234.2787 160.98746,233.56064 C 162.43259,233.11862 168.46273,231.2892 174.38776,229.49525 C 180.31279,227.70131 185.16055,225.83142 185.16055,225.33991 C 185.16055,224.84841 180.07632,225.52555 173.86226,226.84465 C 159.1802,229.9613 153.63326,231.48559 153.61831,232.40759 C 153.61164,232.81885 152.50303,239.65337 151.15474,247.59541 C 148.90177,260.86631 148.73759,264.07389 150.38984,262.53965 C 150.72703,262.22654 152.65825,255.75901 154.68143,248.16735 z M 50.632027,251.18009 C 50.632027,250.97779 47.613228,244.23822 43.923573,236.20328 L 37.215108,221.59429 L 26.347075,214.03428 C 20.369657,209.87626 15.29439,206.65891 15.068698,206.8846 C 14.552266,207.40102 27.891609,232.78678 31.590429,238.3267 C 34.648935,242.90756 50.632027,253.69642 50.632027,251.18009 z M 202.95106,235.78285 C 213.11383,215.98304 218.88697,184.32178 216.64639,160.6746 C 214.77584,140.93277 209.03936,125.84548 195.68687,105.54969 C 185.40632,89.923264 178.65839,82.268906 164.63528,70.327082 C 156.92024,63.757099 151.36873,58.230436 151.08773,56.840167 C 150.82588,55.544636 150.35142,50.474603 150.03339,45.573435 L 149.45513,36.662223 L 141.29549,28.531635 L 133.13585,20.401046 L 107.91176,17.781387 C 94.038496,16.340565 81.03232,15.02329 79.009137,14.854109 C 75.465456,14.557768 75.318841,14.688072 75.009121,18.409026 C 74.711298,21.987179 75.027618,22.470809 79.305479,24.977801 C 81.845304,26.466234 84.709447,27.684043 85.670254,27.684043 C 87.132432,27.684043 87.41717,28.883196 87.41717,35.041071 C 87.41717,39.087437 87.644691,42.398099 87.922777,42.398099 C 88.354876,42.398099 101.83485,36.102017 103.09879,35.309844 C 103.34193,35.157469 102.43182,33.852269 101.07633,32.409419 L 98.611802,29.78605 L 101.68528,29.820239 C 103.37568,29.839041 109.90154,30.499556 116.18719,31.28804 L 127.61563,32.721652 L 135.7568,40.815087 C 143.69979,48.71147 143.9113,49.0554 144.44511,54.942327 C 144.74603,58.260935 145.56709,61.88032 146.2697,62.985419 C 146.9723,64.090519 152.97321,69.48773 159.60507,74.979226 C 174.93646,87.674357 180.63692,93.860315 189.62913,107.56035 C 203.79824,129.14764 210.7226,146.78665 212.10868,164.82435 C 213.38411,181.42237 208.00915,211.28589 199.43185,235.25735 C 197.36351,241.03787 195.6742,246.24034 195.67783,246.81839 C 195.68721,248.30932 199.45872,242.58689 202.95106,235.78285 z M 143.08253,220.47629 C 144.02986,219.52876 146.86121,170.84998 146.0174,170.01805 C 145.86917,169.87191 141.49133,170.23693 136.28886,170.8292 C 127.17408,171.86687 97.385394,171.29209 91.358435,169.96227 L 88.468175,169.32455 L 88.505264,180.74536 C 88.56514,199.18189 90.298372,220.23951 91.842422,221.2898 C 93.804027,222.62414 141.69533,221.86378 143.08253,220.47629 z M 75.023289,193.47994 C 74.765067,179.46217 74.451437,167.8736 74.326346,167.72756 C 74.201256,167.58153 69.173568,166.07676 63.153721,164.38364 C 57.133864,162.69053 50.080796,160.35013 47.480234,159.18274 C 44.319906,157.76407 42.40299,157.40974 41.699711,158.1142 C 41.06006,158.75494 40.668918,167.90397 40.70214,181.44771 C 40.767134,207.9404 41.501345,211.12064 48.08308,213.41833 C 56.382176,216.31555 67.029394,218.84086 71.207692,218.90303 L 75.492803,218.96679 L 75.023289,193.47994 z M 160.53157,212.9931 C 161.14503,208.08301 162.09555,206.0156 165.8702,201.38135 C 171.64281,194.29415 175.1265,187.45719 179.30506,175.01455 C 182.526,165.42346 182.70263,165.16139 187.8056,162.40251 C 190.67177,160.8529 193.17015,158.78601 193.35752,157.80942 C 193.65138,156.27788 192.97044,156.38488 188.4041,158.58774 C 185.49234,159.99243 178.01418,162.63053 171.78598,164.4502 C 165.55776,166.26986 160.35729,167.83726 160.22935,167.93331 C 160.10143,168.02935 159.49613,177.77761 158.88422,189.5961 C 158.27232,201.41458 157.48888,212.85782 157.14324,215.02552 C 156.64338,218.16036 156.84937,218.96679 158.15,218.96679 C 159.35026,218.96679 159.98372,217.37787 160.53157,212.9931 z M 31.349644,203.7683 C 31.025588,202.9238 30.227224,197.28036 29.575517,191.22731 C 28.461316,180.87868 29.046999,168.15888 31.25025,154.85553 C 31.831676,151.3449 31.496575,150.85032 23.907778,144.0185 C 19.53434,140.0813 15.533483,137.12115 15.016988,137.44036 C 14.500493,137.75957 13.198256,141.45387 12.123132,145.64988 C 10.585513,151.65101 10.16837,157.17239 10.16837,171.52395 L 10.16837,189.76887 L 15.42339,194.53807 C 20.647974,199.27965 29.317223,205.24561 31.038148,205.28376 C 31.533527,205.29475 31.67371,204.61278 31.349644,203.7683 z M 205.30512,200.31146 C 206.79415,196.64708 207.70624,162.03284 206.46135,156.43204 C 205.5585,152.37008 205.48287,152.30901 204.22313,154.62486 C 203.21651,156.47537 203.17355,159.30149 204.03464,167.02386 C 205.06303,176.24652 203.9466,199.8135 202.35967,202.3812 C 202.08076,202.83249 202.36513,203.20172 202.9916,203.20172 C 203.61809,203.20172 204.65916,201.9011 205.30512,200.31146 z M 144.41362,157.13572 C 146.00463,155.5447 143.83926,138.46109 140.18652,123.7861 L 137.32499,112.28987 L 118.18782,112.00354 L 99.050641,111.71723 L 97.359027,117.78407 C 96.428636,121.12084 95.244113,125.26977 94.726756,127.00392 C 92.999704,132.79288 89.367865,155.04727 89.916752,156.47765 C 90.672413,158.44686 97.163821,158.86778 121.91201,158.55231 C 135.55419,158.3784 143.68267,157.86667 144.41362,157.13572 z M 76.382973,151.43977 C 76.764603,149.56111 78.254863,142.6583 79.694654,136.10021 C 81.134456,129.54211 82.138345,124.00228 81.925527,123.78945 C 81.712698,123.57663 79.23895,124.09457 76.428302,124.94046 C 69.978353,126.88161 63.647168,126.89821 58.23355,124.98818 L 54.009744,123.49794 L 49.789237,132.60797 C 43.790789,145.55567 43.783905,145.42839 50.632027,148.17714 C 56.787758,150.64797 71.011343,154.68567 73.933365,154.79178 C 75.093001,154.83388 75.924693,153.69581 76.382973,151.43977 z M 171.71441,152.69814 C 181.27795,150.25636 188.94696,146.94973 189.72022,144.93463 C 190.33073,143.34368 185.49899,129.10563 182.03037,122.2744 C 180.10019,118.47302 172.06595,105.66547 169.34123,102.0464 C 168.4534,100.86713 149.93521,109.43111 150.05959,110.96345 C 150.1188,111.69298 151.61209,118.43825 153.37797,125.95293 C 155.14387,133.46761 157.1482,143.04487 157.83202,147.23575 C 159.28262,156.12565 158.89207,155.97197 171.71441,152.69814 z M 42.10212,128.4529 L 48.811772,116.80022 L 49.099537,106.92526 C 49.324935,99.190468 49.079589,97.050311 47.967469,97.050311 C 44.653044,97.050311 27.420108,113.81948 21.789847,122.52344 L 19.929129,125.4 L 27.044972,132.77074 C 30.958692,136.82464 34.437946,140.1334 34.776643,140.12354 C 35.11535,140.11366 38.411813,134.86189 42.10212,128.4529 z M 199.13315,134.39033 C 197.5818,131.2272 196.13519,128.81651 195.91844,129.03326 C 195.25409,129.6976 200.07275,140.14147 201.04362,140.14147 C 201.5442,140.14147 200.68449,137.55347 199.13315,134.39033 z M 81.615606,118.15917 C 99.704033,109.25427 116.32367,83.445894 118.37719,61.072697 C 119.13272,52.841023 117.71348,44.890493 115.70959,46.128964 C 115.17811,46.457434 114.74328,51.206228 114.74328,56.681844 C 114.74328,73.815039 108.13003,87.822307 92.666263,103.44235 C 85.518878,110.66196 82.508592,112.92795 77.65002,114.74579 C 56.650192,122.60283 51.069119,108.68448 64.48485,81.913835 C 71.773846,67.368874 86.217375,51.631622 96.669338,46.846558 C 101.86429,44.46823 104.26409,42.078615 102.86383,40.678362 C 102.54589,40.360413 98.978777,41.838051 94.936915,43.961983 C 87.559087,47.838916 77.47134,56.703988 70.405376,65.520189 C 61.146304,77.072731 53.729252,95.561554 53.434067,107.82536 C 53.261807,114.98245 53.312203,115.12496 57.311294,118.79095 C 61.198475,122.35435 61.629545,122.48824 67.923893,122.08744 C 72.632432,121.78764 76.497973,120.67857 81.615606,118.15917 z M 216.65006,113.36187 C 221.93393,110.62949 224.0477,106.89792 224.0477,100.30236 C 224.0477,95.172661 223.4089,93.287591 219.28091,86.235732 C 213.92945,77.093836 204.38286,66.485158 193.4827,57.567388 L 186.16961,51.584327 L 171.47652,54.488798 C 163.39533,56.08625 156.78345,57.694655 156.78345,58.06301 C 156.78345,58.431376 161.54467,62.712578 167.36394,67.576804 C 182.33973,80.094778 193.04293,91.833085 200.77333,104.21721 C 206.78543,113.84862 207.76168,114.91738 210.5473,114.91738 C 212.24941,114.91738 214.99566,114.2174 216.65006,113.36187 z M 75.144196,111.1398 C 77.84885,110.21824 79.846493,109.11595 79.583416,108.69026 C 79.320329,108.26459 76.404728,107.312 73.104291,106.5734 C 67.284115,105.27089 67.046136,105.30507 65.197167,107.70917 C 64.148675,109.07245 63.280304,110.77905 63.26745,111.50161 C 63.234638,113.34614 69.202523,113.16432 75.144196,111.1398 z M 128.0517,98.627297 C 127.47549,95.448277 127.29915,92.55214 127.65986,92.191436 C 129.03263,90.818667 131.73476,92.988833 134.80762,97.932009 L 137.99573,103.0606 L 142.83644,102.15625 C 145.49883,101.65887 147.86725,101.06181 148.09961,100.82947 C 148.33195,100.59712 147.54315,98.488221 146.34672,96.143022 C 144.06429,91.669097 143.55087,88.642279 145.07443,88.642279 C 145.5711,88.642279 148.12667,90.534087 150.75348,92.846296 C 153.38028,95.158504 155.9748,97.050311 156.51907,97.050311 C 157.06334,97.050311 158.37801,96.089687 159.44056,94.915586 C 161.70679,92.411422 162.15493,92.986047 150.47742,83.422173 C 143.30662,77.549298 142.26274,77.023692 138.91638,77.600977 C 136.89319,77.949994 131.55665,78.858755 127.05736,79.62045 C 122.5581,80.382133 118.73778,81.186551 118.56777,81.40805 C 118.39774,81.629538 115.97483,85.830843 113.18353,90.744287 C 110.3922,95.657731 107.41858,100.74197 106.57545,102.04257 L 105.04249,104.40733 L 117.07093,104.40733 L 129.09937,104.40733 L 128.0517,98.627297 z M 93.355511,96.787557 C 97.898066,92.040123 104.23323,83.137676 104.23323,81.501737 C 104.23323,80.962035 100.56786,79.622888 96.087953,78.52587 L 87.942672,76.531297 L 79.271888,84.292467 C 74.502957,88.5611 70.601105,92.414059 70.601105,92.854588 C 70.601105,93.295116 71.838083,94.46605 73.349954,95.456663 C 76.088165,97.250803 76.118635,97.238232 81.225915,92.207758 C 87.632342,85.897666 89.488205,86.867995 85.885521,94.644016 C 83.34599,100.12533 83.550137,100.97109 87.461092,101.17135 C 88.352332,101.21699 91.004825,99.244282 93.355511,96.787557 z M 76.484142,78.828423 L 81.613767,74.184278 L 79.935124,70.640491 L 78.256471,67.096696 L 73.548929,74.453724 C 67.678882,83.627539 66.726189,85.949586 69.424957,84.505243 C 70.48622,83.93727 73.662848,81.38271 76.484142,78.828423 z M 108.18973,72.614466 C 108.77321,71.891901 109.57897,69.309322 109.9803,66.875407 C 110.81566,61.80942 111.59557,62.224629 97.701575,60.338613 C 86.82021,58.861532 84.264158,59.82216 84.264158,65.388677 L 84.264158,69.513206 L 91.883938,71.147117 C 98.993052,72.671536 103.09306,73.440797 105.94381,73.785096 C 106.5956,73.863817 107.60626,73.337032 108.18973,72.614466 z M 133.3986,71.669571 C 139.25507,70.56214 139.61133,70.199964 137.53217,67.467279 C 135.66161,65.00876 122.1003,63.53644 122.1003,65.791884 C 122.1003,66.654043 121.80471,68.837421 121.44343,70.643834 C 120.70641,74.328917 119.76312,74.247979 133.3986,71.669571 z M 134.71236,55.587749 C 134.71236,51.252682 134.50977,50.953314 130.48707,49.343744 C 123.66167,46.612762 123.15131,46.89399 123.15131,53.386021 L 123.15131,59.118922 L 127.09258,59.778113 C 129.26027,60.140677 131.50679,60.571232 132.08485,60.734915 C 134.10153,61.305968 134.71236,60.109399 134.71236,55.587749 z M 100.66717,54.398696 C 100.31629,53.484332 100.02922,52.301952 100.02922,51.771184 C 100.02922,50.239041 97.570376,50.645853 94.745307,52.645389 L 92.146688,54.484646 L 95.825203,55.134545 C 97.848385,55.491991 99.909024,55.846705 100.40442,55.922798 C 100.8998,55.998901 101.01804,55.313048 100.66717,54.398696 z M 118.4412,40.920377 C 121.06088,41.577875 121.22087,41.438281 120.49839,39.125452 C 119.52588,36.01222 118.16089,35.077783 114.5556,35.057172 C 110.95553,35.036594 108.69633,37.320803 107.84886,41.838198 C 106.80229,47.416917 108.16481,48.091683 112.08433,43.93576 C 115.00971,40.833964 116.07795,40.327243 118.4412,40.920377 z M 165.97973,29.667413 C 172.48282,27.866853 177.80353,26.044339 177.80353,25.61739 C 177.80353,24.916191 167.49195,16.47892 164.48139,14.716775 C 162.9825,13.839439 139.96737,19.095458 139.96737,20.315105 C 139.96737,21.176509 152.63449,32.854467 153.63043,32.911221 C 153.91946,32.927691 159.47664,31.467972 165.97973,29.667413 z " id="path1432"/>
</svg>